<svg xmlns="http://www.w3.org/2000/svg" width="120" height="120" viewBox="0 0 120 120"><g fill="none" fill-rule="evenodd"><circle cx="60" cy="60" r="60" fill="#E7FAF5"/><path stroke="#2CBB9C" stroke-linecap="round" stroke-linejoin="round" stroke-width="2" d="M65.067 43.176c0 2.858-2.317 7.058-5.176 7.058-2.858 0-5.176-4.2-5.176-7.058a5.176 5.176 0 0 1 10.352 0zm5.7 16.653v-3.715c-1.93-1.222-4.242-2.12-6.784-2.594-.853 2.032-2.363 3.807-4.091 3.807-1.728 0-3.24-1.775-4.092-3.807-2.536.474-4.845 1.368-6.771 2.585v3.728"/><path stroke="#FF7B00" stroke-linecap="round" stroke-linejoin="round" stroke-width="2" d="M74.196 71.641l5.805-6.27c1.658-1.793.134-4.097-1.689-4.242"/><path stroke="#FF7B00" stroke-linecap="round" stroke-linejoin="round" stroke-width="2" d="M65.22 81.053c.215-3.84.992-8.15 3.19-10.527l7.935-8.572c.604-.65 1.305-.878 1.968-.825"/><path stroke="#FF7B00" stroke-linecap="round" stroke-linejoin="round" stroke-width="2" d="M73.566 81.053c-.049-1.806.036-3.248.63-3.776 4.953-4.404 5.837-5.677 7.644-8.544 2.364-4.718 1.275-2.527 1.874-17.074.136-3.288-4.865-3.564-5.007-.087l-.395 9.557M45.52 71.641l-5.803-6.27c-1.66-1.793-.134-4.097 1.688-4.242"/><path stroke="#FF7B00" stroke-linecap="round" stroke-linejoin="round" stroke-width="2" d="M54.496 81.053c-.214-3.84-.99-8.15-3.19-10.527l-7.933-8.572c-.604-.65-1.306-.878-1.969-.825"/><path stroke="#FF7B00" stroke-linecap="round" stroke-linejoin="round" stroke-width="2" d="M46.151 81.053c.048-1.806-.037-3.248-.63-3.776-4.953-4.404-5.837-5.677-7.644-8.544-2.365-4.718-1.275-2.527-1.874-17.074-.136-3.288 4.864-3.564 5.007-.087l.394 9.557"/><path stroke="#231F20" stroke-linecap="round" stroke-linejoin="round" stroke-width="2" d="M58.245999999999995 45.774"/><path stroke="#00BA97" stroke-linecap="round" stroke-linejoin="round" stroke-width="2" d="M40.776 67.524"/><path fill="#FF7B00" fill-rule="nonzero" d="M70.155 3.511a.907.907 0 0 0-1.267.018c-.884.884-1.831 1.333-2.822 1.333-1.71 0-3.074-1.322-3.089-1.335a.913.913 0 0 0-1.286 1.295l.004.005c2.75 2.756.052 5.81-.264 6.15a.913.913 0 0 0 1.308 1.27c.962-.963 1.999-1.45 3.083-1.45 1.717 0 3.056 1.218 3.071 1.231a.912.912 0 0 0 1.266-1.314c-2.67-2.678-.228-5.606.056-5.932a.912.912 0 0 0-.06-1.27zM67.227 9.15a5.742 5.742 0 0 0-1.408-.178c-.45 0-.884.052-1.31.16.226-.823.313-1.72.13-2.637a5.5 5.5 0 0 0 2.645.05 5.62 5.62 0 0 0-.057 2.605zm22.276 3.21c-.192.2-1.111 1.249-.225 2.294a.914.914 0 1 1-.981 1.54.905.905 0 0 1-.18-.119l-.005.003-.053-.055c-.174-.17-1.304-.951-2.274-.011A.905.905 0 0 1 84.507 16a.91.91 0 0 1-.04-1.247l-.002-.002c.003 0 .028-.025.043-.039.418-.43.956-1.294-.071-2.32a.913.913 0 0 1 1.254-1.324s.637.543 1.373.543c.409 0 .787-.175 1.15-.54a.911.911 0 1 1 1.289 1.288zM18.58 3.955l-.004-.003.054-.054c.51-.522.916-1.337.015-2.269l-.04-.038A.909.909 0 0 1 18.62.288a.91.91 0 0 1 1.276.01c.007.011.018.02.028.03 0 .002.004.006.007.008.092.087.566.525 1.154.525.385 0 .78-.201 1.176-.598a.917.917 0 0 1 1.271-.016.914.914 0 0 1 .053 1.271c-.192.223-1.115 1.413-.01 2.53h.003v.002a.912.912 0 0 1-1.287 1.295c-.292-.274-1.507-.99-2.384-.142a.911.911 0 0 1-1.327-1.247zM5.415 48.901c.022.49.424.876.912.876h.018a.91.91 0 0 0 .894-.91c0-3.79 3.795-4.13 4.23-4.156a.91.91 0 0 0 .855-.94.91.91 0 0 0-.908-.884c-4.025 0-4.173-3.757-4.175-4.184v-.001a.913.913 0 0 0-1.825-.017v.019c0 3.902-4.069 4.152-4.532 4.17a.913.913 0 0 0 .028 1.825c4.21.002 4.484 3.772 4.503 4.202zm112.747 2.417c.424.726 1.02 1.4 1.838 1.894-.708.426-1.376 1.01-1.87 1.788a5.6 5.6 0 0 0-1.914-1.927c.738-.415 1.429-.987 1.946-1.755z"/></g></svg>