<svg width="34" height="34" viewBox="0 0 34 34" fill="none" xmlns="http://www.w3.org/2000/svg">
<path d="M26.2665 0.457031H7.7518C3.60867 0.457031 0.25 3.81183 0.25 7.95019V26.4436C0.25 30.5819 3.60867 33.9367 7.7518 33.9367H26.2665C30.4096 33.9367 33.7683 30.5819 33.7683 26.4436V7.95019C33.7683 3.81183 30.4096 0.457031 26.2665 0.457031Z" fill="#1DC4FF"/>
<path fill-rule="evenodd" clip-rule="evenodd" d="M22.4194 8.21739C22.2528 7.0286 21.6616 5.94003 20.7548 5.15227C19.8481 4.36452 18.6868 3.93066 17.485 3.93066C16.2833 3.93066 15.122 4.36452 14.2152 5.15227C13.3084 5.94003 12.7173 7.0286 12.5506 8.21739L11.7974 13.6063L8.91734 11.1142C8.74978 10.9689 8.53438 10.8906 8.31254 10.8943C8.0907 10.898 7.87805 10.9835 7.71544 11.1342C7.35687 11.4038 7.06045 11.7472 6.84622 12.1411C6.63199 12.535 6.50494 12.9703 6.47368 13.4175C6.44241 13.8647 6.50766 14.3134 6.665 14.7332C6.82234 15.153 7.0681 15.5342 7.38567 15.851L10.2239 18.6884H10.2163C10.7336 19.2945 11.019 20.0896 10.8466 21.0727C10.814 21.2348 10.798 21.3998 10.7989 21.5651L10.6599 22.555C10.6154 22.8755 10.5931 23.1987 10.593 23.5222C10.593 27.3871 13.6161 30.5196 17.4846 30.5196C18.4866 30.5202 19.477 30.306 20.389 29.8915C21.301 29.4769 22.1133 28.8717 22.771 28.1167C23.4288 27.3617 23.9166 26.4745 24.2016 25.515C24.4866 24.5555 24.5622 23.5461 24.4231 22.555L22.4194 8.21739Z" fill="#010202"/>
<path fill-rule="evenodd" clip-rule="evenodd" d="M21.2141 27.6636C20.454 27.6636 19.7251 27.9652 19.1876 28.502C18.6502 29.0388 18.3483 29.7669 18.3483 30.5261H24.0799C24.0799 29.7669 23.7779 29.0388 23.2405 28.502C22.703 27.9652 21.9741 27.6636 21.2141 27.6636" fill="#F67900"/>
<path fill-rule="evenodd" clip-rule="evenodd" d="M13.7448 27.6636C13.3685 27.6636 12.9959 27.7376 12.6483 27.8815C12.3006 28.0254 11.9848 28.2362 11.7187 28.502C11.4527 28.7679 11.2417 29.0834 11.0977 29.4307C10.9538 29.778 10.8798 30.1502 10.8799 30.5261H16.6106C16.6106 29.7669 16.3087 29.0388 15.7713 28.502C15.2338 27.9652 14.5049 27.6636 13.7448 27.6636" fill="#F67900"/>
<path fill-rule="evenodd" clip-rule="evenodd" d="M15.8177 7.67731C15.4285 7.67731 15.1138 8.02676 15.1138 8.45815C15.1138 8.88953 15.4293 9.23564 15.8177 9.23564C16.206 9.23564 16.5208 8.88702 16.5208 8.45564C16.5208 8.02426 16.2052 7.6748 15.8177 7.6748" fill="white"/>
<path fill-rule="evenodd" clip-rule="evenodd" d="M19.1531 7.67725C18.7639 7.67725 18.4501 8.0267 18.4501 8.45808C18.4501 8.88946 18.7639 9.23808 19.1531 9.23808C19.5424 9.23808 19.8562 8.88946 19.8562 8.45808C19.8562 8.0267 19.5424 7.67725 19.1531 7.67725Z" fill="white"/>
<path fill-rule="evenodd" clip-rule="evenodd" d="M17.4775 27.4031C19.5214 27.4031 21.1769 24.6442 21.1769 21.235C21.1769 17.8257 19.5214 15.0669 17.4775 15.0669C15.4336 15.0669 13.7772 17.8257 13.7772 21.235C13.7772 24.6442 15.4336 27.4031 17.4775 27.4031" fill="white"/>
<path fill-rule="evenodd" clip-rule="evenodd" d="M17.4588 10.0645C16.7131 10.0645 15.5932 10.6747 14.7403 10.7282C14.7232 10.7303 14.7076 10.7388 14.6965 10.752C14.6855 10.7652 14.6799 10.7821 14.6809 10.7993C14.6869 10.8406 14.708 10.8782 14.7403 10.9046C15.4216 11.5459 16.19 12.1018 17.458 12.1018C18.6758 12.1018 19.5998 11.4957 20.2493 10.9046C20.2744 10.8812 20.2744 10.821 20.2744 10.7993C20.2756 10.7822 20.2702 10.7653 20.2593 10.7521C20.2484 10.7389 20.2328 10.7303 20.2158 10.7282C19.4073 10.6747 18.2046 10.0645 17.4588 10.0645Z" fill="#F67900"/>
</svg>
